<svg id="el_lNh4ywljx" xmlns="http://www.w3.org/2000/svg" xmlns:xlink="http://www.w3.org/1999/xlink" viewBox="0 0 121 100"><style>@-webkit-keyframes kf_el_6ZAHLA3jguH_an_ZcCunvvy1{7.78%{-webkit-transform: translate(79.99818420410156px, 61px) rotate(0deg) translate(-79.99818420410156px, -61px);transform: translate(79.99818420410156px, 61px) rotate(0deg) translate(-79.99818420410156px, -61px);}11.11%{-webkit-transform: translate(79.99818420410156px, 61px) rotate(40deg) translate(-79.99818420410156px, -61px);transform: translate(79.99818420410156px, 61px) rotate(40deg) translate(-79.99818420410156px, -61px);}14.44%{-webkit-transform: translate(79.99818420410156px, 61px) rotate(-15deg) translate(-79.99818420410156px, -61px);transform: translate(79.99818420410156px, 61px) rotate(-15deg) translate(-79.99818420410156px, -61px);}16.67%{-webkit-transform: translate(79.99818420410156px, 61px) rotate(10deg) translate(-79.99818420410156px, -61px);transform: translate(79.99818420410156px, 61px) rotate(10deg) translate(-79.99818420410156px, -61px);}18.89%{-webkit-transform: translate(79.99818420410156px, 61px) rotate(0deg) translate(-79.99818420410156px, -61px);transform: translate(79.99818420410156px, 61px) rotate(0deg) translate(-79.99818420410156px, -61px);}0%{-webkit-transform: translate(79.99818420410156px, 61px) rotate(0deg) translate(-79.99818420410156px, -61px);transform: translate(79.99818420410156px, 61px) rotate(0deg) translate(-79.99818420410156px, -61px);}100%{-webkit-transform: translate(79.99818420410156px, 61px) rotate(0deg) translate(-79.99818420410156px, -61px);transform: translate(79.99818420410156px, 61px) rotate(0deg) translate(-79.99818420410156px, -61px);}}@keyframes kf_el_6ZAHLA3jguH_an_ZcCunvvy1{7.78%{-webkit-transform: translate(79.99818420410156px, 61px) rotate(0deg) translate(-79.99818420410156px, -61px);transform: translate(79.99818420410156px, 61px) rotate(0deg) translate(-79.99818420410156px, -61px);}11.11%{-webkit-transform: translate(79.99818420410156px, 61px) rotate(40deg) translate(-79.99818420410156px, -61px);transform: translate(79.99818420410156px, 61px) rotate(40deg) translate(-79.99818420410156px, -61px);}14.44%{-webkit-transform: translate(79.99818420410156px, 61px) rotate(-15deg) translate(-79.99818420410156px, -61px);transform: translate(79.99818420410156px, 61px) rotate(-15deg) translate(-79.99818420410156px, -61px);}16.67%{-webkit-transform: translate(79.99818420410156px, 61px) rotate(10deg) translate(-79.99818420410156px, -61px);transform: translate(79.99818420410156px, 61px) rotate(10deg) translate(-79.99818420410156px, -61px);}18.89%{-webkit-transform: translate(79.99818420410156px, 61px) rotate(0deg) translate(-79.99818420410156px, -61px);transform: translate(79.99818420410156px, 61px) rotate(0deg) translate(-79.99818420410156px, -61px);}0%{-webkit-transform: translate(79.99818420410156px, 61px) rotate(0deg) translate(-79.99818420410156px, -61px);transform: translate(79.99818420410156px, 61px) rotate(0deg) translate(-79.99818420410156px, -61px);}100%{-webkit-transform: translate(79.99818420410156px, 61px) rotate(0deg) translate(-79.99818420410156px, -61px);transform: translate(79.99818420410156px, 61px) rotate(0deg) translate(-79.99818420410156px, -61px);}}@-webkit-keyframes kf_el_0dSN8TNL7b_an_XhwLexEl_{0%{-webkit-transform: translate(81px, 60px) rotate(0deg) translate(-81px, -60px);transform: translate(81px, 60px) rotate(0deg) translate(-81px, -60px);}7.78%{-webkit-transform: translate(81px, 60px) rotate(15deg) translate(-81px, -60px);transform: translate(81px, 60px) rotate(15deg) translate(-81px, -60px);}11.11%{-webkit-transform: translate(81px, 60px) rotate(0deg) translate(-81px, -60px);transform: translate(81px, 60px) rotate(0deg) translate(-81px, -60px);}100%{-webkit-transform: translate(81px, 60px) rotate(0deg) translate(-81px, -60px);transform: translate(81px, 60px) rotate(0deg) translate(-81px, -60px);}}@keyframes kf_el_0dSN8TNL7b_an_XhwLexEl_{0%{-webkit-transform: translate(81px, 60px) rotate(0deg) translate(-81px, -60px);transform: translate(81px, 60px) rotate(0deg) translate(-81px, -60px);}7.78%{-webkit-transform: translate(81px, 60px) rotate(15deg) translate(-81px, -60px);transform: translate(81px, 60px) rotate(15deg) translate(-81px, -60px);}11.11%{-webkit-transform: translate(81px, 60px) rotate(0deg) translate(-81px, -60px);transform: translate(81px, 60px) rotate(0deg) translate(-81px, -60px);}100%{-webkit-transform: translate(81px, 60px) rotate(0deg) translate(-81px, -60px);transform: translate(81px, 60px) rotate(0deg) translate(-81px, -60px);}}@-webkit-keyframes kf_el_0dSN8TNL7b_an_UoqDCevCr{0%{-webkit-transform: translate(81px, 60px) scale(0.4, 0.4) translate(-81px, -60px);transform: translate(81px, 60px) scale(0.4, 0.4) translate(-81px, -60px);}7.78%{-webkit-transform: translate(81px, 60px) scale(1.25, 1.25) translate(-81px, -60px);transform: translate(81px, 60px) scale(1.25, 1.25) translate(-81px, -60px);}11.11%{-webkit-transform: translate(81px, 60px) scale(1, 1) translate(-81px, -60px);transform: translate(81px, 60px) scale(1, 1) translate(-81px, -60px);}13.33%{-webkit-transform: translate(81px, 60px) scale(1.05, 1.05) translate(-81px, -60px);transform: translate(81px, 60px) scale(1.05, 1.05) translate(-81px, -60px);}14.44%{-webkit-transform: translate(81px, 60px) scale(1, 1) translate(-81px, -60px);transform: translate(81px, 60px) scale(1, 1) translate(-81px, -60px);}100%{-webkit-transform: translate(81px, 60px) scale(1, 1) translate(-81px, -60px);transform: translate(81px, 60px) scale(1, 1) translate(-81px, -60px);}}@keyframes kf_el_0dSN8TNL7b_an_UoqDCevCr{0%{-webkit-transform: translate(81px, 60px) scale(0.4, 0.4) translate(-81px, -60px);transform: translate(81px, 60px) scale(0.4, 0.4) translate(-81px, -60px);}7.78%{-webkit-transform: translate(81px, 60px) scale(1.25, 1.25) translate(-81px, -60px);transform: translate(81px, 60px) scale(1.25, 1.25) translate(-81px, -60px);}11.11%{-webkit-transform: translate(81px, 60px) scale(1, 1) translate(-81px, -60px);transform: translate(81px, 60px) scale(1, 1) translate(-81px, -60px);}13.33%{-webkit-transform: translate(81px, 60px) scale(1.05, 1.05) translate(-81px, -60px);transform: translate(81px, 60px) scale(1.05, 1.05) translate(-81px, -60px);}14.44%{-webkit-transform: translate(81px, 60px) scale(1, 1) translate(-81px, -60px);transform: translate(81px, 60px) scale(1, 1) translate(-81px, -60px);}100%{-webkit-transform: translate(81px, 60px) scale(1, 1) translate(-81px, -60px);transform: translate(81px, 60px) scale(1, 1) translate(-81px, -60px);}}@-webkit-keyframes kf_el_yZ1WSrotf_an_0YjyIzCBG{7.78%{-webkit-transform: translate(75.67597198486328px, 63px) rotate(40deg) translate(-75.67597198486328px, -63px);transform: translate(75.67597198486328px, 63px) rotate(40deg) translate(-75.67597198486328px, -63px);}14.44%{-webkit-transform: translate(75.67597198486328px, 63px) rotate(-5deg) translate(-75.67597198486328px, -63px);transform: translate(75.67597198486328px, 63px) rotate(-5deg) translate(-75.67597198486328px, -63px);}17.78%{-webkit-transform: translate(75.67597198486328px, 63px) rotate(0deg) translate(-75.67597198486328px, -63px);transform: translate(75.67597198486328px, 63px) rotate(0deg) translate(-75.67597198486328px, -63px);}0%{-webkit-transform: translate(75.67597198486328px, 63px) rotate(40deg) translate(-75.67597198486328px, -63px);transform: translate(75.67597198486328px, 63px) rotate(40deg) translate(-75.67597198486328px, -63px);}100%{-webkit-transform: translate(75.67597198486328px, 63px) rotate(0deg) translate(-75.67597198486328px, -63px);transform: translate(75.67597198486328px, 63px) rotate(0deg) translate(-75.67597198486328px, -63px);}}@keyframes kf_el_yZ1WSrotf_an_0YjyIzCBG{7.78%{-webkit-transform: translate(75.67597198486328px, 63px) rotate(40deg) translate(-75.67597198486328px, -63px);transform: translate(75.67597198486328px, 63px) rotate(40deg) translate(-75.67597198486328px, -63px);}14.44%{-webkit-transform: translate(75.67597198486328px, 63px) rotate(-5deg) translate(-75.67597198486328px, -63px);transform: translate(75.67597198486328px, 63px) rotate(-5deg) translate(-75.67597198486328px, -63px);}17.78%{-webkit-transform: translate(75.67597198486328px, 63px) rotate(0deg) translate(-75.67597198486328px, -63px);transform: translate(75.67597198486328px, 63px) rotate(0deg) translate(-75.67597198486328px, -63px);}0%{-webkit-transform: translate(75.67597198486328px, 63px) rotate(40deg) translate(-75.67597198486328px, -63px);transform: translate(75.67597198486328px, 63px) rotate(40deg) translate(-75.67597198486328px, -63px);}100%{-webkit-transform: translate(75.67597198486328px, 63px) rotate(0deg) translate(-75.67597198486328px, -63px);transform: translate(75.67597198486328px, 63px) rotate(0deg) translate(-75.67597198486328px, -63px);}}@-webkit-keyframes kf_el_yZ1WSrotf_an_BHZlykR2T{0%{-webkit-transform: translate(75.67597198486328px, 63px) scale(0, 0) translate(-75.67597198486328px, -63px);transform: translate(75.67597198486328px, 63px) scale(0, 0) translate(-75.67597198486328px, -63px);}7.78%{-webkit-transform: translate(75.67597198486328px, 63px) scale(0.2, 0.2) translate(-75.67597198486328px, -63px);transform: translate(75.67597198486328px, 63px) scale(0.2, 0.2) translate(-75.67597198486328px, -63px);}14.44%{-webkit-transform: translate(75.67597198486328px, 63px) scale(1.15, 1.15) translate(-75.67597198486328px, -63px);transform: translate(75.67597198486328px, 63px) scale(1.15, 1.15) translate(-75.67597198486328px, -63px);}17.78%{-webkit-transform: translate(75.67597198486328px, 63px) scale(0.9, 0.9) translate(-75.67597198486328px, -63px);transform: translate(75.67597198486328px, 63px) scale(0.9, 0.9) translate(-75.67597198486328px, -63px);}20%{-webkit-transform: translate(75.67597198486328px, 63px) scale(1.05, 1.05) translate(-75.67597198486328px, -63px);transform: translate(75.67597198486328px, 63px) scale(1.05, 1.05) translate(-75.67597198486328px, -63px);}22.22%{-webkit-transform: translate(75.67597198486328px, 63px) scale(1, 1) translate(-75.67597198486328px, -63px);transform: translate(75.67597198486328px, 63px) scale(1, 1) translate(-75.67597198486328px, -63px);}100%{-webkit-transform: translate(75.67597198486328px, 63px) scale(1, 1) translate(-75.67597198486328px, -63px);transform: translate(75.67597198486328px, 63px) scale(1, 1) translate(-75.67597198486328px, -63px);}}@keyframes kf_el_yZ1WSrotf_an_BHZlykR2T{0%{-webkit-transform: translate(75.67597198486328px, 63px) scale(0, 0) translate(-75.67597198486328px, -63px);transform: translate(75.67597198486328px, 63px) scale(0, 0) translate(-75.67597198486328px, -63px);}7.78%{-webkit-transform: translate(75.67597198486328px, 63px) scale(0.2, 0.2) translate(-75.67597198486328px, -63px);transform: translate(75.67597198486328px, 63px) scale(0.2, 0.2) translate(-75.67597198486328px, -63px);}14.44%{-webkit-transform: translate(75.67597198486328px, 63px) scale(1.15, 1.15) translate(-75.67597198486328px, -63px);transform: translate(75.67597198486328px, 63px) scale(1.15, 1.15) translate(-75.67597198486328px, -63px);}17.78%{-webkit-transform: translate(75.67597198486328px, 63px) scale(0.9, 0.9) translate(-75.67597198486328px, -63px);transform: translate(75.67597198486328px, 63px) scale(0.9, 0.9) translate(-75.67597198486328px, -63px);}20%{-webkit-transform: translate(75.67597198486328px, 63px) scale(1.05, 1.05) translate(-75.67597198486328px, -63px);transform: translate(75.67597198486328px, 63px) scale(1.05, 1.05) translate(-75.67597198486328px, -63px);}22.22%{-webkit-transform: translate(75.67597198486328px, 63px) scale(1, 1) translate(-75.67597198486328px, -63px);transform: translate(75.67597198486328px, 63px) scale(1, 1) translate(-75.67597198486328px, -63px);}100%{-webkit-transform: translate(75.67597198486328px, 63px) scale(1, 1) translate(-75.67597198486328px, -63px);transform: translate(75.67597198486328px, 63px) scale(1, 1) translate(-75.67597198486328px, -63px);}}#el_lNh4ywljx *{-webkit-animation-duration: 3s;animation-duration: 3s;-webkit-animation-iteration-count: 1;animation-iteration-count: 1;-webkit-animation-timing-function: cubic-bezier(0, 0, 1, 1);animation-timing-function: cubic-bezier(0, 0, 1, 1);}#el_V72kuoTLnx{fill: #d64d4d;fill-rule: evenodd;}#el_gIW69XJfva{fill-rule: evenodd;fill: #787878;}#el_36s8OM-3CG{fill-rule: evenodd;fill: #f6f6f7;}#el_15muBvW0KD{fill-rule: evenodd;fill: #323233;opacity: 0.9;}#el_Msjh4mlJ7_{fill-rule: evenodd;fill: #e2e2e2;}#el_BBW-9SZihm{fill-rule: evenodd;fill: #323233;}#el_OUOyI-G7Id{fill-rule: evenodd;fill: #66a6ff;}#el_5kylzCoyLc{fill-rule: evenodd;fill: #fff;}#el_Gtx_8rd1hT{fill: #4585e6;-webkit-filter: url(#filter);filter: url(#filter);}#el_AuRxbP1Zov{fill-rule: evenodd;fill: #2a6ccf;}#el_b3VC9vQUiE{fill-rule: evenodd;fill: #686b73;}#el_CJmVSvTT4T{fill-rule: evenodd;fill: #f6f6f7;}#el_1QdPCbzG-Tf{fill-rule: evenodd;fill: #e57266;}#el_6ZAHLA3jguH{fill-rule: evenodd;fill: #f6f6f7;-webkit-filter: url(#filter-2);filter: url(#filter-2);}#el_-mug3NJFv6h{fill: #e2e2e2;}#el_yZ1WSrotf_an_BHZlykR2T{-webkit-animation-fill-mode: forwards;animation-fill-mode: forwards;-webkit-transform: translate(75.67597198486328px, 63px) scale(0.2, 0.2) translate(-75.67597198486328px, -63px);transform: translate(75.67597198486328px, 63px) scale(0.2, 0.2) translate(-75.67597198486328px, -63px);-webkit-animation-name: kf_el_yZ1WSrotf_an_BHZlykR2T;animation-name: kf_el_yZ1WSrotf_an_BHZlykR2T;-webkit-animation-timing-function: cubic-bezier(0, 0, 1, 1);animation-timing-function: cubic-bezier(0, 0, 1, 1);}#el_yZ1WSrotf_an_0YjyIzCBG{-webkit-animation-fill-mode: forwards;animation-fill-mode: forwards;-webkit-transform: translate(75.67597198486328px, 63px) rotate(40deg) translate(-75.67597198486328px, -63px);transform: translate(75.67597198486328px, 63px) rotate(40deg) translate(-75.67597198486328px, -63px);-webkit-animation-name: kf_el_yZ1WSrotf_an_0YjyIzCBG;animation-name: kf_el_yZ1WSrotf_an_0YjyIzCBG;-webkit-animation-timing-function: cubic-bezier(0, 0, 1, 1);animation-timing-function: cubic-bezier(0, 0, 1, 1);}#el_0dSN8TNL7b_an_UoqDCevCr{-webkit-animation-fill-mode: forwards;animation-fill-mode: forwards;-webkit-transform: translate(81px, 60px) scale(0.4, 0.4) translate(-81px, -60px);transform: translate(81px, 60px) scale(0.4, 0.4) translate(-81px, -60px);-webkit-animation-name: kf_el_0dSN8TNL7b_an_UoqDCevCr;animation-name: kf_el_0dSN8TNL7b_an_UoqDCevCr;-webkit-animation-timing-function: cubic-bezier(0.42, 0, 0.58, 1);animation-timing-function: cubic-bezier(0.42, 0, 0.58, 1);}#el_0dSN8TNL7b_an_XhwLexEl_{-webkit-animation-fill-mode: forwards;animation-fill-mode: forwards;-webkit-transform: translate(81px, 60px) rotate(0deg) translate(-81px, -60px);transform: translate(81px, 60px) rotate(0deg) translate(-81px, -60px);-webkit-animation-name: kf_el_0dSN8TNL7b_an_XhwLexEl_;animation-name: kf_el_0dSN8TNL7b_an_XhwLexEl_;-webkit-animation-timing-function: cubic-bezier(0, 0, 1, 1);animation-timing-function: cubic-bezier(0, 0, 1, 1);}#el_6ZAHLA3jguH_an_ZcCunvvy1{-webkit-animation-fill-mode: forwards;animation-fill-mode: forwards;-webkit-transform: translate(79.99818420410156px, 61px) rotate(0deg) translate(-79.99818420410156px, -61px);transform: translate(79.99818420410156px, 61px) rotate(0deg) translate(-79.99818420410156px, -61px);-webkit-animation-name: kf_el_6ZAHLA3jguH_an_ZcCunvvy1;animation-name: kf_el_6ZAHLA3jguH_an_ZcCunvvy1;-webkit-animation-timing-function: cubic-bezier(0, 0, 1, 1);animation-timing-function: cubic-bezier(0, 0, 1, 1);}</style>
  <defs>
    
    <filter id="filter" x="45" y="23" width="73" height="73" filterUnits="userSpaceOnUse">
      <feOffset result="offset" in="SourceAlpha"/>
      <feGaussianBlur result="blur" stdDeviation="3.464"/>
      <feFlood result="flood" flood-opacity="0.4"/>
      <feComposite result="composite" operator="in" in2="blur"/>
      <feBlend result="blend" in="SourceGraphic"/>
    </filter>
    <filter id="filter-2" x="80" y="39" width="19" height="25" filterUnits="userSpaceOnUse">
      <feOffset result="offset" dx="0.5" dy="0.866" in="SourceAlpha"/>
      <feGaussianBlur result="blur" stdDeviation="1.414"/>
      <feFlood result="flood" flood-opacity="0.15"/>
      <feComposite result="composite" operator="in" in2="blur"/>
      <feBlend result="blend" in="SourceGraphic"/>
    </filter>
  </defs>
  <g id="el_yZ1WSrotf_an_0YjyIzCBG" data-animator-group="true" data-animator-type="1"><g id="el_yZ1WSrotf_an_BHZlykR2T" data-animator-group="true" data-animator-type="2"><g id="el_yZ1WSrotf">
    <path id="el_V72kuoTLnx" data-name="Rounded Rectangle 3" d="M16,26V18a3,3,0,0,1,3-3H71a3,3,0,0,1,3,3v8H16Zm10-8a3,3,0,1,0,3,3A3,3,0,0,0,26,18Zm39,0a3,3,0,1,0,3,3A3,3,0,0,0,65,18Z"/>
    <path id="el_gIW69XJfva" data-name="Rounded Rectangle 3 copy 2" d="M74,43V60a3,3,0,0,1-3,3H19a3,3,0,0,1-3-3V43H74Z"/>
    <g id="el_zcrSugB7LJ">
      <path id="el_36s8OM-3CG" data-name="Rounded Rectangle 3 copy 3" d="M73.913,43l1.755,15.136A2.667,2.667,0,0,1,72.789,61H17.124a2.667,2.667,0,0,1-2.879-2.864L16,43H73.913Z"/>
      <path id="el_15muBvW0KD" data-name="25" d="M37.316,43H42.17a25.012,25.012,0,0,1-1.847,2.02L35.007,50.1h9.715l-0.017,3.593H28.843l0.333-3.065,7.767-7.244C37.086,43.245,37.184,43.131,37.316,43ZM51.7,49.638a3.319,3.319,0,0,0,2.248.76,2.6,2.6,0,0,0,2.271-1.058,4.383,4.383,0,0,0,.589-2.915,3.928,3.928,0,0,0-1.116-2.671A3.231,3.231,0,0,0,54.248,43h5.767A8.576,8.576,0,0,1,61.2,46.654a7.1,7.1,0,0,1-.52,3.721,5.685,5.685,0,0,1-2.425,2.662,8.091,8.091,0,0,1-4.091.969,9.265,9.265,0,0,1-3.929-.844,7.008,7.008,0,0,1-2.858-2.325,6,6,0,0,1-1.1-3.287h4.362A3.236,3.236,0,0,0,51.7,49.638ZM50.63,43.587l-0.4.359L46.8,43.162,46.815,43h5.032A3.2,3.2,0,0,0,50.63,43.587Z"/>
    </g>
    <path id="el_Msjh4mlJ7_" data-name="Rounded Rectangle 3 copy 4" d="M16,43V26H74V43H16Z"/>
    <path id="el_BBW-9SZihm" data-name="25 copy" d="M51.27,40.364a6.566,6.566,0,0,1,3.214-.832,6.066,6.066,0,0,1,4.785,1.952A6.154,6.154,0,0,1,60.216,43H54.489a4.108,4.108,0,0,0-1.164-.169,4.374,4.374,0,0,0-1.22.169h-5L48.32,31.979H60.3v3.647H51.8ZM42.494,43H37.672a16.648,16.648,0,0,0,1.759-2.379,4.6,4.6,0,0,0,.683-2.27,3.436,3.436,0,0,0-.719-2.308,2.557,2.557,0,0,0-2.055-.84,2.763,2.763,0,0,0-2.268,1.022,4.13,4.13,0,0,0-.829,2.686H29.986a7.4,7.4,0,0,1,.932-3.678,6.663,6.663,0,0,1,2.635-2.611,7.815,7.815,0,0,1,3.86-.946,7.431,7.431,0,0,1,5.13,1.634,5.872,5.872,0,0,1,1.827,4.616,7.594,7.594,0,0,1-.822,3.33A12.791,12.791,0,0,1,42.494,43Z"/>
    <g id="el_MzoZlVN8QE">
      <path id="el_OUOyI-G7Id" data-name="Rounded Rectangle 4" d="M26,11a2,2,0,0,1,2,2v7a2,2,0,0,1-4,0V13A2,2,0,0,1,26,11Zm39,0a2,2,0,0,1,2,2v7a2,2,0,0,1-4,0V13A2,2,0,0,1,65,11Z"/>
      <path id="el_5kylzCoyLc" data-name="Ellipse 8 copy" d="M64,12a1,1,0,1,1-1,1A1,1,0,0,1,64,12ZM25,12a1,1,0,1,1-1,1A1,1,0,0,1,25,12Z"/>
    </g>
  </g></g></g>
  <g id="el_0dSN8TNL7b_an_XhwLexEl_" data-animator-group="true" data-animator-type="1"><g id="el_0dSN8TNL7b_an_UoqDCevCr" data-animator-group="true" data-animator-type="2"><g id="el_0dSN8TNL7b">
    <circle cx="81" cy="59" r="24.719" id="el_Gtx_8rd1hT"/>
    <path id="el_AuRxbP1Zov" data-name="Ellipse 2 copy" d="M81,83.719V34.281A24.719,24.719,0,1,1,81,83.719Z"/>
    <path d="M81,34A27,27,0,1,1,54,61,27,27,0,0,1,81,34Zm0,4A23,23,0,1,1,58,61,23,23,0,0,1,81,38Z" id="el_b3VC9vQUiE"/>
    <path id="el_CJmVSvTT4T" data-name="Ellipse 4 copy" d="M81,32A27,27,0,1,1,54,59,27,27,0,0,1,81,32Zm0,4A23,23,0,1,1,58,59,23,23,0,0,1,81,36Z"/>
    <path id="el_1QdPCbzG-Tf" data-name="Rounded Rectangle 2" d="M66.254,72.434L80.441,58.247a0.912,0.912,0,1,1,1.29,1.29L67.544,73.724A0.912,0.912,0,0,1,66.254,72.434Z"/>
    <g id="el_6ZAHLA3jguH_an_ZcCunvvy1" data-animator-group="true" data-animator-type="1"><path id="el_6ZAHLA3jguH" data-name="Ellipse 1 copy 2" d="M81.391,39h0.228a1.473,1.473,0,0,1,1.391,1.544V56.459A1.473,1.473,0,0,1,81.618,58H81.391A1.473,1.473,0,0,1,80,56.459V40.544A1.473,1.473,0,0,1,81.391,39ZM85,57h9a2,2,0,0,1,0,4H85A2,2,0,0,1,85,57Z"/></g>
    <circle id="el_-mug3NJFv6h" data-name="Ellipse 1 copy 3" cx="81" cy="59" r="4"/>
  </g></g></g>
</svg>